<?xml version="1.0" encoding="utf-8"?>
<!-- Generator: Adobe Illustrator 25.0.1, SVG Export Plug-In . SVG Version: 6.00 Build 0)  -->
<svg version="1.1" id="Camada_1" xmlns="http://www.w3.org/2000/svg" xmlns:xlink="http://www.w3.org/1999/xlink" x="0px" y="0px"
	 width="1920px" height="1080px" viewBox="0 0 1920 1080" style="enable-background:new 0 0 1920 1080;" xml:space="preserve">
<style type="text/css">
	.st0{fill-rule:evenodd;clip-rule:evenodd;fill:#3C3C3B;}
	.st1{fill-rule:evenodd;clip-rule:evenodd;fill:#636362;}
	.st2{fill-rule:evenodd;clip-rule:evenodd;fill:#868686;}
	.st3{opacity:0.8;fill-rule:evenodd;clip-rule:evenodd;fill:#006186;}
</style>
<g>
	<path class="st0" d="M739.1,736.9c14.6,0,26.9-3.2,36.7-9.7c9.8-6.5,16.8-14.4,21-23.9c4.2-9.5,6.3-22.1,6.3-37.8
		c0-27.2-5.7-48-17.1-62.4c-11.4-14.4-26.8-21.6-46.2-21.6c-20,0-35.7,7.4-47,22.1c-11.3,14.8-17,32.3-17,52.5
		C675.8,710.1,696.9,736.9,739.1,736.9L739.1,736.9z M739.8,571.1c27.2,0,48.6,9.3,64.2,28c15.6,18.7,23.3,39.6,23.3,62.9
		c0,17.2-4.2,32.9-12.7,47.2c-8.4,14.2-19.4,24.3-33,30.1c-13.6,5.8-28,8.8-43.2,8.8c-24.8,0-45.5-8.6-62-25.9
		c-16.5-17.3-24.7-39.2-24.7-65.8c0-13.9,3.7-27.7,11-41.3c7.3-13.6,17.6-24.3,31-32.1C707,575,722.4,571.1,739.8,571.1z"/>
	<path class="st0" d="M739.8,585.1c-19,0-33.5,6.8-44.2,20.8c-10.8,14.1-16.2,31-16.2,50.4c0,51.9,19.5,77.1,59.7,77.1
		c13.9,0,25.6-3.1,34.7-9.1c9.2-6.1,15.8-13.6,19.7-22.4c4-9,6-21.2,6-36.4c0-26.3-5.5-46.5-16.3-60.2
		C772.4,591.7,758.2,585.1,739.8,585.1L739.8,585.1z M739.1,740.5c-44.3,0-66.8-28.3-66.8-84.2c0-21,5.9-39.4,17.7-54.7
		c12-15.6,28.7-23.5,49.8-23.5c20.4,0,36.9,7.7,48.9,22.9c11.8,14.9,17.8,36.7,17.8,64.5c0,16.2-2.2,29.4-6.6,39.2
		c-4.5,10-12,18.6-22.3,25.4C767.4,737,754.4,740.5,739.1,740.5L739.1,740.5z M739.8,574.6c26,0,46.7,9,61.5,26.7
		c14.9,17.9,22.5,38.3,22.5,60.7c0,16.5-4.1,31.7-12.2,45.4c-8,13.5-18.6,23.2-31.4,28.7c-13.1,5.6-27.2,8.5-41.9,8.5
		c-23.7,0-43.7-8.3-59.4-24.8c-15.8-16.5-23.8-37.8-23.8-63.4c0-13.3,3.5-26.6,10.5-39.7c7-13,17-23.3,29.7-30.8
		C708.1,578.4,723.1,574.6,739.8,574.6L739.8,574.6z M738.4,751.6c-25.7,0-47.4-9.1-64.5-27c-17.1-17.9-25.7-40.8-25.7-68.3
		c0-14.4,3.8-28.9,11.4-43c7.6-14.1,18.5-25.4,32.3-33.5c13.8-8.1,29.9-12.2,47.9-12.2c28.2,0,50.7,9.9,66.9,29.3
		c16,19.2,24.2,41.2,24.2,65.2c0,17.8-4.4,34.2-13.2,48.9c-8.8,14.8-20.5,25.4-34.7,31.6C769.1,748.5,754.1,751.6,738.4,751.6z"/>
	<path class="st0" d="M1327.2,736.9c14.6,0,26.9-3.2,36.7-9.7c9.8-6.5,16.8-14.4,21-23.9c4.2-9.5,6.3-22.1,6.3-37.8
		c0-27.2-5.7-48-17.1-62.4c-11.4-14.4-26.8-21.6-46.2-21.6c-20,0-35.7,7.4-47,22.1c-11.3,14.8-17,32.3-17,52.5
		C1264,710.1,1285.1,736.9,1327.2,736.9L1327.2,736.9z M1328,571.1c27.2,0,48.6,9.3,64.2,28c15.6,18.7,23.3,39.6,23.3,62.9
		c0,17.2-4.2,32.9-12.7,47.2c-8.4,14.2-19.5,24.3-33,30.1c-13.6,5.8-28,8.8-43.2,8.8c-24.8,0-45.5-8.6-62-25.9
		c-16.5-17.3-24.7-39.2-24.7-65.8c0-13.9,3.7-27.7,11-41.3c7.3-13.6,17.6-24.3,31-32.1C1295.1,575,1310.5,571.1,1328,571.1z"/>
	<path class="st0" d="M1328,585.1c-19.1,0-33.5,6.8-44.2,20.8c-10.8,14.1-16.2,31-16.2,50.4c0,51.9,19.5,77.1,59.7,77.1
		c13.9,0,25.6-3.1,34.7-9.1c9.2-6.1,15.8-13.6,19.7-22.4c4-9,6-21.2,6-36.4c0-26.3-5.5-46.5-16.3-60.2
		C1360.6,591.7,1346.4,585.1,1328,585.1L1328,585.1z M1327.2,740.5c-44.3,0-66.8-28.3-66.8-84.2c0-21,5.9-39.4,17.7-54.7
		c12-15.6,28.7-23.5,49.8-23.5c20.4,0,36.9,7.7,48.9,22.9c11.8,15,17.8,36.7,17.8,64.5c0,16.2-2.2,29.4-6.6,39.2
		c-4.5,10-12,18.6-22.3,25.4C1355.5,737,1342.5,740.5,1327.2,740.5L1327.2,740.5z M1328,574.6c26,0,46.7,9,61.5,26.7
		c14.9,17.9,22.5,38.3,22.5,60.7c0,16.5-4.1,31.7-12.2,45.4c-8,13.5-18.6,23.2-31.4,28.7c-13.1,5.6-27.1,8.5-41.8,8.5
		c-23.7,0-43.7-8.3-59.4-24.8c-15.8-16.5-23.8-37.8-23.8-63.4c0-13.3,3.6-26.6,10.5-39.7c7-13,17-23.3,29.7-30.8
		C1296.3,578.4,1311.2,574.6,1328,574.6L1328,574.6z M1326.5,751.6c-25.7,0-47.4-9.1-64.5-27c-17.1-17.9-25.7-40.8-25.7-68.3
		c0-14.4,3.8-28.9,11.4-43c7.6-14.1,18.5-25.4,32.3-33.5c13.8-8.1,29.9-12.2,47.9-12.2c28.2,0,50.7,9.9,66.9,29.3
		c16,19.2,24.2,41.2,24.2,65.2c0,17.8-4.4,34.2-13.2,48.9c-8.8,14.8-20.5,25.4-34.7,31.6C1357.2,748.5,1342.2,751.6,1326.5,751.6z"
		/>
	<path class="st0" d="M976,572h-14.4v3.7v114.1c0,4.2-90.4-117.6-90.4-117.6h-12.1V572h-11.3v175.8h21V612c0.5,0.3,1.1,0.8,1.7,1.6
		l91.2,123.8v0l7.7,10.4h6.7V572z"/>
	<path class="st0" d="M971.1,744.3h1.4V575.5h-7.3v117.8l-3.6,0.1h-0.1c-2.4,0-4.1-0.7-49-60.3c-19.2-25.5-38.4-51.2-43-57.5h-13.9
		v-0.1h-4.3v168.8h13.9V605.8l5.3,3.2c1,0.6,1.8,1.4,2.7,2.4l91.9,124.8L971.1,744.3L971.1,744.3z M979.5,751.3h-12l-9.4-12.8
		l-85.8-116.5v129.3h-28V568.4h18.4v0.1H873l1.1,1.4c28.2,37.9,69.2,92.6,84.1,110.8V568.4h21.4V751.3z"/>
	<path class="st0" d="M645.5,717.6c-11.5,8.7-22.9,14.2-34,16.6c-11.2,2.3-19.3,3.3-24.3,2.8c-19.7-1.9-34.6-10.4-44.8-25.5
		c-10.2-15.1-14.1-34.7-11.8-58.7c2.2-22.1,9.3-39.6,21.3-52.5c12.1-12.9,27.7-18.4,46.9-16.6c12.1,1.2,26.7,9.7,31.9,13v-15.9
		c-0.6-0.3-1.1-0.5-1.7-0.8c-8.9-3.7-18.8-6.1-29.7-7.2c-17-1.7-32.3,0.6-46,6.8c-13.6,6.2-24.6,15.6-32.9,28.3
		c-8.3,12.6-13.2,26.6-14.7,41.8c-1.5,15.2,0.6,30.2,6.4,45.1c5.8,14.8,15,26.9,27.6,36.1c12.6,9.2,28,14.7,46.2,16.5
		c11.3,1.1,22.2,0,32.7-3.2c10.5-3.2,19.2-7.5,26-12.9c0.7-0.6,1.4-1.1,2-1.6v-12.7C646.3,717.1,645.9,717.4,645.5,717.6z"/>
	<path class="st0" d="M588.6,575.7c-12.3,0-23.7,2.4-33.9,7c-12.9,5.9-23.5,15-31.4,27c-7.9,12.1-12.7,25.6-14.1,40.2
		c-1.4,14.6,0.7,29.2,6.2,43.5c5.5,14.1,14.4,25.8,26.4,34.5c12.1,8.8,27,14.2,44.5,15.9c10.7,1.1,21.3,0,31.3-3.1
		c10-3.1,18.4-7.2,24.9-12.3c0.2-0.2,0.5-0.4,0.7-0.5v-4.2c-10.4,7.1-20.8,11.8-30.9,13.9c-11.5,2.4-19.9,3.3-25.4,2.8
		c-20.7-2-36.6-11.1-47.4-27.1c-10.6-15.7-14.8-36.3-12.4-61c2.2-22.8,9.7-41.1,22.3-54.6c12.8-13.7,29.6-19.6,49.8-17.7
		c9.7,0.9,20.8,6.3,28,10.3V583c-8.5-3.5-18-5.8-28.3-6.8C595.4,575.9,592,575.7,588.6,575.7L588.6,575.7z M594.4,751.3
		c-2.9,0-5.9-0.1-8.8-0.4c-18.7-1.8-34.9-7.6-47.9-17.2c-13.1-9.6-22.8-22.3-28.8-37.7c-5.9-15.3-8.2-31-6.6-46.7
		c1.5-15.7,6.7-30.3,15.2-43.4c8.6-13.1,20.2-23.1,34.4-29.5c14.1-6.4,30.2-8.8,47.8-7.1c11.2,1.1,21.5,3.6,30.7,7.5
		c0.5,0.2,1,0.4,1.4,0.6l2.5,1.2V603l-5.4-3.4c-4.2-2.6-18.8-11.4-30.3-12.5c-18.2-1.8-32.6,3.3-44,15.5
		c-11.5,12.3-18.3,29.3-20.4,50.5c-2.3,23.1,1.5,42.1,11.2,56.4c9.7,14.3,23.5,22.2,42.2,24c4.6,0.5,12.6-0.5,23.3-2.7
		c10.6-2.2,21.6-7.6,32.6-15.9c0.5-0.3,0.8-0.6,1.2-0.9l5.4-3.5l0.1,6.4v14.4l-1.3,1.1c-0.7,0.6-1.4,1.1-2.1,1.7
		c-7.1,5.6-16.3,10.1-27.1,13.4C611.4,750,602.9,751.3,594.4,751.3z"/>
	<polygon class="st0" points="1210.8,748 1234.8,748 1179.4,647.4 1220.5,572 1204.1,572 1171.1,632.5 1137.8,572 1113.8,572 
		1159.2,654.4 1108.3,747.8 1124.7,747.8 1167.5,669.3 	"/>
	<path class="st0" d="M1212.9,744.5h15.9l-53.5-97.1l39.2-72h-8.3l-35.1,64.4l-35.5-64.4h-15.9l43.5,78.9l-49,89.9h8.3l44.8-82.3
		L1212.9,744.5L1212.9,744.5z M1240.7,751.6h-32l-41.3-74.9l-40.7,74.7h-24.4l52.8-96.9l-47.4-86h32l31.3,56.8l30.9-56.8h24.4
		l-43,79L1240.7,751.6z"/>
	<polygon class="st0" points="1086.9,748 1086.9,735.6 1086.9,735.6 1086.9,734 1023.4,734 1023.4,645.6 1055.4,645.6 1055.4,631.3 
		1023.4,631.3 1023.4,586.3 1086.9,586.3 1086.9,584.3 1086.9,584.3 1086.9,572 1086.9,572 1023.4,572 1021.6,572 1002.4,572 
		1002.4,572 1002.4,586.3 1002.4,586.3 1002.4,631.3 1002.4,631.3 1002.4,645.6 1002.4,645.6 1002.4,734 1002.4,734 1002.4,748 
		1086.9,748 	"/>
	<path class="st0" d="M1005.9,744.5h77.5v-7h-63.5v-95.5h32v-7.3h-32v-52h63.5l0-7.3h-77.5v10.8v44.9v14.4V734V744.5L1005.9,744.5z
		 M1090.4,751.6h-91.6l0-183.1h91.6l0,15.9l0,5.5h-63.5v37.9h32v21.4h-32v81.4h63.5V751.6z"/>
	<path class="st1" d="M666.2,869.7l-12-32.7c-0.4-1.1-0.8-2.8-1.2-5.1h-0.2c-0.4,2.2-0.8,3.9-1.2,5.1l-11.9,32.7H666.2L666.2,869.7z
		 M687.2,899.3h-9.9l-8.1-21.5h-32.5l-7.6,21.5h-10l29.4-76.7h9.3L687.2,899.3z"/>
	<path class="st1" d="M707.5,830.7v60.4h11.4c10.1,0,17.9-2.7,23.5-8.1c5.6-5.4,8.4-13,8.4-22.9c0-19.6-10.4-29.5-31.3-29.5H707.5
		L707.5,830.7z M698.5,899.3v-76.7h21.2c27,0,40.5,12.5,40.5,37.4c0,11.8-3.7,21.3-11.3,28.5c-7.5,7.2-17.5,10.8-30.1,10.8H698.5z"
		/>
	<path class="st1" d="M832.3,822.6l-28.4,76.7H794l-27.8-76.7h10l21.2,60.8c0.7,2,1.2,4.2,1.6,6.8h0.2c0.3-2.1,0.9-4.4,1.8-6.9
		l21.7-60.7H832.3z"/>
	<path class="st1" d="M881.6,869.7l-12-32.7c-0.4-1.1-0.8-2.8-1.2-5.1h-0.2c-0.4,2.2-0.8,3.9-1.2,5.1L855,869.7H881.6L881.6,869.7z
		 M902.6,899.3h-9.9l-8.1-21.5h-32.5l-7.6,21.5h-10l29.4-76.7h9.3L902.6,899.3z"/>
	<path class="st1" d="M975.7,899.3h-11l-39.5-61.1c-1-1.5-1.8-3.1-2.5-4.8h-0.3c0.3,1.6,0.4,5.2,0.4,10.5v55.4h-9v-76.7h11.7
		l38.4,60.2c1.6,2.5,2.6,4.2,3.1,5.1h0.2c-0.4-2.2-0.5-6-0.5-11.3v-54h9V899.3z"/>
	<polygon class="st1" points="1041.2,830.7 1019,830.7 1019,899.3 1010.1,899.3 1010.1,830.7 988,830.7 988,822.6 1041.2,822.6 	"/>
	<path class="st1" d="M1091.5,869.7l-12-32.7c-0.4-1.1-0.8-2.8-1.2-5.1h-0.2c-0.4,2.2-0.8,3.9-1.2,5.1l-11.9,32.7H1091.5
		L1091.5,869.7z M1112.6,899.3h-9.9l-8.1-21.5H1062l-7.6,21.5h-10l29.4-76.7h9.3L1112.6,899.3z"/>
	<path class="st1" d="M1181.2,894c-7.7,4.4-16.3,6.5-25.7,6.5c-10.9,0-19.8-3.5-26.6-10.6c-6.8-7.1-10.1-16.4-10.1-28
		c0-11.9,3.8-21.6,11.3-29.2c7.5-7.6,17-11.4,28.5-11.4c8.3,0,15.3,1.4,21,4.1v9.9c-6.2-3.9-13.5-5.9-22-5.9c-8.6,0-15.6,3-21.1,8.9
		c-5.5,5.9-8.2,13.6-8.2,23c0,9.7,2.6,17.3,7.6,22.9c5.1,5.5,12,8.3,20.7,8.3c6,0,11.2-1.2,15.6-3.6v-21.5h-16.8v-8.1h25.8V894z"/>
	<polygon class="st1" points="1239.6,899.3 1199,899.3 1199,822.6 1237.9,822.6 1237.9,830.7 1207.9,830.7 1207.9,856.2 
		1235.6,856.2 1235.6,864.3 1207.9,864.3 1207.9,891.2 1239.6,891.2 	"/>
	<path class="st1" d="M1250.8,896.2v-10.6c1.2,1.1,2.7,2,4.4,2.9c1.7,0.9,3.5,1.6,5.3,2.2c1.9,0.6,3.7,1,5.6,1.4
		c1.9,0.3,3.6,0.5,5.2,0.5c5.5,0,9.6-1,12.4-3.1c2.7-2,4.1-5,4.1-8.9c0-2.1-0.5-3.9-1.4-5.4c-0.9-1.5-2.2-2.9-3.8-4.2
		c-1.6-1.3-3.5-2.5-5.7-3.6c-2.2-1.2-4.6-2.4-7.1-3.7c-2.7-1.4-5.2-2.7-7.5-4.1c-2.3-1.4-4.3-2.9-6-4.6c-1.7-1.7-3.1-3.6-4-5.7
		c-1-2.1-1.5-4.6-1.5-7.5c0-3.5,0.8-6.5,2.3-9.1c1.5-2.6,3.5-4.7,6-6.4c2.5-1.7,5.3-2.9,8.5-3.7c3.2-0.8,6.4-1.2,9.8-1.2
		c7.6,0,13.1,0.9,16.5,2.7v10.1c-4.5-3.1-10.3-4.7-17.4-4.7c-2,0-3.9,0.2-5.9,0.6c-2,0.4-3.7,1.1-5.2,2c-1.5,0.9-2.8,2.1-3.7,3.6
		c-1,1.5-1.4,3.2-1.4,5.3c0,2,0.4,3.7,1.1,5.1c0.7,1.4,1.8,2.7,3.2,3.9c1.4,1.2,3.2,2.3,5.2,3.4c2,1.1,4.4,2.3,7.1,3.6
		c2.7,1.4,5.4,2.8,7.8,4.3c2.5,1.5,4.6,3.2,6.5,5c1.9,1.8,3.3,3.8,4.4,6c1.1,2.2,1.6,4.7,1.6,7.6c0,3.8-0.7,7-2.2,9.6
		c-1.5,2.6-3.5,4.8-6,6.4c-2.5,1.6-5.4,2.8-8.7,3.6c-3.3,0.7-6.7,1.1-10.4,1.1c-1.2,0-2.7-0.1-4.5-0.3c-1.8-0.2-3.6-0.5-5.5-0.9
		c-1.9-0.4-3.6-0.8-5.3-1.4C1253.1,897.5,1251.8,896.9,1250.8,896.2z"/>
	<path class="st2" d="M869.9,205c0,13.5-10.9,24.4-24.4,24.4c-13.5,0-24.4-10.9-24.4-24.4c0-13.5,10.9-24.4,24.4-24.4
		C859,180.6,869.9,191.5,869.9,205z"/>
	<path class="st2" d="M1101,431.3c0,13.4-10.9,24.4-24.4,24.4c-13.5,0-24.4-10.9-24.4-24.4c0-13.4,10.9-24.4,24.4-24.4
		C1090.1,406.9,1101,417.9,1101,431.3z"/>
	<path class="st2" d="M1041,425.6c-31.7,0.3-79.2-22.4-122.8-61.7c-46.8-42.1-75.2-90.7-74.4-122.4c-11.4-0.6-21.5-6.4-27.8-15.1
		c-2.8,40.8,30.6,101.9,87.9,153.4c49.1,44.2,103.4,70.3,143.3,72.3c-4.1-5.9-6.6-13.1-6.6-20.9
		C1040.5,429.4,1040.7,427.4,1041,425.6z"/>
	<path class="st2" d="M1104.8,407.6c2.8-40.8-30.7-101.8-87.9-153.3c-49-44.2-103.2-70.2-143-72.3c5.1,6.3,8.2,14.3,8.2,23.1
		c0,1.2-0.1,2.3-0.2,3.5c31.7,0.7,78.1,23.3,120.7,61.6c47.9,43.1,76.5,93.1,74.3,124.7c0,0,0.1,0,0.1,0
		C1088.1,394.8,1098.1,399.7,1104.8,407.6z"/>
	<g>
		<path class="st3" d="M1104.9,206.4c0,13.4-10.9,24.4-24.4,24.4c-13.5,0-24.4-10.9-24.4-24.4c0-13.5,10.9-24.4,24.4-24.4
			C1094,182.1,1104.9,193,1104.9,206.4z"/>
		<path class="st3" d="M869.9,432.7c0,13.4-10.9,24.4-24.4,24.4c-13.5,0-24.4-10.9-24.4-24.4c0-13.5,10.9-24.4,24.4-24.4
			C859,408.4,869.9,419.3,869.9,432.7z"/>
		<path class="st3" d="M1080.6,243c-0.6,0-1.2,0-1.9,0c-1,0-1.9-0.1-2.8-0.3c-0.5,31.7-27.9,79.1-72.6,120.6
			c-44,40.8-92.3,64.4-124,63.5c0.6,2.6,0.9,5.3,0.9,8.1c0,1.2-0.1,2.3-0.2,3.5c-0.5,5.5-2.3,10.7-5,15.2
			c39.9-2.4,94-29.3,142.8-74.5c51.8-48,83.4-103.7,85.7-144.1C1097.2,239.9,1089.3,243,1080.6,243z"/>
		<path class="st3" d="M843.7,398.3c0.5,0,1,0,1.5,0c-3.9-31.4,24.1-82.9,72.3-127.6c45.2-42,95.1-65.7,126.7-63.3c0-0.3,0-0.7,0-1
			c0-10.2,4.2-19.4,10.9-26c-40.5-1.7-99.4,25.8-152,74.6c-56.4,52.3-88.9,113.7-85.6,154.5C824,402.6,833.3,398.3,843.7,398.3z"/>
	</g>
</g>
</svg>
