<svg xmlns="http://www.w3.org/2000/svg" xmlns:xlink="http://www.w3.org/1999/xlink" width="564.257" height="570.35" viewBox="0 0 564.257 570.35">
  <defs>
    <clipPath id="clip-path">
      <circle id="Elipse_1" data-name="Elipse 1" cx="278.944" cy="278.944" r="278.944"/>
    </clipPath>
  </defs>
  <g id="sobre-conexo-advantages" transform="translate(-23.341 -28.4)">
    <g id="Grupo_45" data-name="Grupo 45" transform="translate(23.341 281.036)">
      <g id="Grupo_19" data-name="Grupo 19" transform="translate(28.874)">
        <g id="Grupo_7" data-name="Grupo 7" transform="translate(116.589 154.074)">
          <path id="Caminho_5" data-name="Caminho 5" d="M138.9,392.158c.881-3.4,1.636-6.671,2.392-10.07s1.385-6.672,1.888-10.07c.629-3.4,1.007-6.8,1.385-10.2.252-1.762.378-3.4.5-5.161s.252-3.4.378-5.161c.126,1.762.126,3.4.252,5.161,0,1.762-.126,3.4-.126,5.161a95.822,95.822,0,0,1-1.133,10.322,98.71,98.71,0,0,1-2.266,10.2A52.887,52.887,0,0,1,138.9,392.158Z" transform="translate(-138.9 -351.5)" fill="#92d5e4"/>
        </g>
        <g id="Grupo_18" data-name="Grupo 18">
          <g id="Grupo_8" data-name="Grupo 8">
            <path id="Caminho_6" data-name="Caminho 6" d="M201.135,448.378c-30.588-116.059-89-169.809-154.577-219.278-2.014,44.309,6.923,95.163,26.308,130.157s58.155,100.45,103.219,127.262" transform="translate(-46.279 -229.1)" fill="#b9e5ee"/>
          </g>
          <g id="Grupo_9" data-name="Grupo 9" transform="translate(0.908 6.42)">
            <path id="Caminho_7" data-name="Caminho 7" d="M182.192,475.255l-6.42-16.112-6.8-15.986L162.052,427.3c-2.392-5.287-4.783-10.448-7.3-15.735-9.818-20.9-20.266-41.54-31.6-61.68q-16.8-30.211-35.875-59.288c-3.147-4.783-6.42-9.567-9.693-14.35s-6.672-9.441-9.944-14.224l-10.2-13.972L47,234.2l10.7,13.595,10.448,13.846c3.4,4.658,6.8,9.315,10.07,14.1l9.818,14.35c12.839,19.259,24.8,39.022,36.127,59.162q16.8,30.4,31.343,61.806c2.392,5.287,4.783,10.574,7.049,15.861l6.8,15.986,6.42,16.112Z" transform="translate(-47 -234.2)" fill="#92d5e4"/>
          </g>
          <g id="Grupo_10" data-name="Grupo 10" transform="translate(102.491 132.423)">
            <path id="Caminho_8" data-name="Caminho 8" d="M127.7,369.294c.252-3.021.755-5.916,1.133-8.811s1.007-5.916,1.511-8.811,1.133-5.79,1.762-8.686l1.007-4.406c.378-1.385.755-2.9,1.133-4.28-.126,1.511-.378,3.021-.5,4.406l-.629,4.406c-.378,2.9-1.007,5.916-1.511,8.811s-1.133,5.79-1.762,8.686S128.455,366.4,127.7,369.294Z" transform="translate(-127.7 -334.3)" fill="#92d5e4"/>
          </g>
          <g id="Grupo_11" data-name="Grupo 11" transform="translate(78.574 82.072)">
            <path id="Caminho_9" data-name="Caminho 9" d="M108.7,333.2c.5-3.273,1.133-6.42,1.511-9.693s.881-6.42,1.133-9.693.5-6.546.629-9.693c.126-1.636.126-3.273.126-4.909s0-3.273.126-4.909c.252,1.636.378,3.273.5,4.909s.126,3.273.252,4.909a85.352,85.352,0,0,1-.378,9.818c-.378,3.273-.755,6.546-1.385,9.818A65.49,65.49,0,0,1,108.7,333.2Z" transform="translate(-108.7 -294.3)" fill="#92d5e4"/>
          </g>
          <g id="Grupo_12" data-name="Grupo 12" transform="translate(55.412 53.498)">
            <path id="Caminho_10" data-name="Caminho 10" d="M90.3,301.811c.378-5.035.755-10.07.881-15.105s0-10.07-.252-15.105a67.609,67.609,0,0,1,1.511,15.105A75.341,75.341,0,0,1,90.3,301.811Z" transform="translate(-90.3 -271.6)" fill="#92d5e4"/>
          </g>
          <g id="Grupo_13" data-name="Grupo 13" transform="translate(32.503 31.721)">
            <path id="Caminho_11" data-name="Caminho 11" d="M72.226,271.923c.126-3.021.252-5.916.252-8.811s-.126-5.79-.378-8.811a26.035,26.035,0,0,1,1.636,8.811A24.062,24.062,0,0,1,72.226,271.923Z" transform="translate(-72.1 -254.3)" fill="#92d5e4"/>
          </g>
          <g id="Grupo_14" data-name="Grupo 14" transform="translate(16.894 47.981)">
            <path id="Caminho_12" data-name="Caminho 12" d="M75.183,269.084a40.475,40.475,0,0,1-7.8-.252,41.412,41.412,0,0,1-7.679-1.511,40.475,40.475,0,0,1,7.8.252A51.777,51.777,0,0,1,75.183,269.084Z" transform="translate(-59.7 -267.217)" fill="#92d5e4"/>
          </g>
          <g id="Grupo_15" data-name="Grupo 15" transform="translate(22.181 73.135)">
            <path id="Caminho_13" data-name="Caminho 13" d="M96.628,298.529a36.237,36.237,0,0,1-9.063.378A35.768,35.768,0,0,1,70.7,292.99l-1.888-1.259-1.762-1.385-1.636-1.511c-.5-.5-1.007-1.133-1.511-1.636.629.5,1.133.881,1.762,1.385l1.762,1.259,1.888,1.259,1.888,1.133a38.631,38.631,0,0,0,8.056,3.65,47.035,47.035,0,0,0,17.371,2.643Z" transform="translate(-63.9 -287.2)" fill="#92d5e4"/>
          </g>
          <g id="Grupo_16" data-name="Grupo 16" transform="translate(31.37 112.912)">
            <path id="Caminho_14" data-name="Caminho 14" d="M117.523,327.234a55.259,55.259,0,0,1-11.958,2.014,49.82,49.82,0,0,1-12.21-.755,54.545,54.545,0,0,1-11.707-3.525l-2.769-1.259L76.235,322.2l-2.518-1.636c-.881-.629-1.636-1.133-2.518-1.762l2.643,1.511,2.643,1.385,2.769,1.259,2.769,1.133a66.276,66.276,0,0,0,23.539,4.154A77.963,77.963,0,0,0,117.523,327.234Z" transform="translate(-71.2 -318.8)" fill="#92d5e4"/>
          </g>
          <g id="Grupo_17" data-name="Grupo 17" transform="translate(59.566 158.731)">
            <path id="Caminho_15" data-name="Caminho 15" d="M136.021,363.76a18.9,18.9,0,0,1-5.287,1.888,21.34,21.34,0,0,1-2.9.126c-.881,0-1.888-.126-2.769-.126a65.511,65.511,0,0,1-11.077-1.762,61.318,61.318,0,0,1-10.574-3.525c-1.762-.755-3.4-1.511-5.035-2.392s-3.273-1.762-4.783-2.769c1.636.755,3.4,1.636,5.035,2.266,1.636.755,3.4,1.385,5.161,2.014a93.916,93.916,0,0,0,10.574,3.273c3.525.881,7.175,1.511,10.825,2.14.881.126,1.888.252,2.769.378a19.488,19.488,0,0,0,2.769.126C132.5,365.018,134.258,364.263,136.021,363.76Z" transform="translate(-93.6 -355.2)" fill="#92d5e4"/>
          </g>
        </g>
      </g>
      <g id="Grupo_20" data-name="Grupo 20" transform="translate(241.381 213.706)">
        <path id="Caminho_16" data-name="Caminho 16" d="M247.828,489.161a207.343,207.343,0,0,1,85.6,13.721,339.588,339.588,0,0,0-67.722-25.8,445.733,445.733,0,0,1,118.576,1.259,548.681,548.681,0,0,0-97.3-16.868A1181.549,1181.549,0,0,1,413.86,439.691c-39.525-4.406-75.275-7.8-113.415-1.133,43.176-20.518,86.226-30.336,134.815-38.015-49.847-4.406-104.982-.629-158.857,17.749-11.707,4.028-45.316,22.154-45.316,22.154L215.1,464.867Z" transform="translate(-215.1 -398.873)" fill="#92d5e4"/>
      </g>
      <g id="Grupo_34" data-name="Grupo 34" transform="translate(229.297 65.708)">
        <g id="Grupo_21" data-name="Grupo 21" transform="translate(46.492 119.206)">
          <path id="Caminho_17" data-name="Caminho 17" d="M243.65,412.63a57.268,57.268,0,0,1-1.133-9.189,76.664,76.664,0,0,1,.126-9.315,55.812,55.812,0,0,1,1.385-9.189l1.133-4.532a45.229,45.229,0,0,1,1.51-4.406,14.634,14.634,0,0,1-.5,2.266l-.378,2.266-.755,4.532c-.378,3.021-.755,6.042-1.007,9.189-.252,3.021-.378,6.168-.378,9.189A74.607,74.607,0,0,0,243.65,412.63Z" transform="translate(-242.434 -376)" fill="#92d5e4"/>
        </g>
        <g id="Grupo_33" data-name="Grupo 33">
          <g id="Grupo_22" data-name="Grupo 22">
            <path id="Caminho_18" data-name="Caminho 18" d="M205.5,452.367C267.683,355.568,350.637,313.9,434.471,281.3c-13.595,38.9-37.26,86.352-67.093,114.045-29.833,27.567-88.366,78.547-144,94.66" transform="translate(-205.5 -281.3)" fill="#b9e5ee"/>
          </g>
          <g id="Grupo_23" data-name="Grupo 23" transform="translate(13.343 9.693)">
            <path id="Caminho_19" data-name="Caminho 19" d="M216.1,478.194,227.3,464.6l11.329-13.469,11.707-13.217L262.3,424.948q24.168-25.679,50.1-49.47,26.057-23.791,53.75-45.442l13.972-10.7,14.224-10.448,14.35-10.07,14.6-9.818-14.35,10.07L394.72,309.392l-14.1,10.574-13.847,10.826q-27.567,21.9-53.5,45.693c-17.371,15.735-34.113,32.225-50.225,49.218l-12.084,12.84-11.832,13.091-11.581,13.217Z" transform="translate(-216.1 -289)" fill="#92d5e4"/>
          </g>
          <g id="Grupo_24" data-name="Grupo 24" transform="translate(69.862 102.464)">
            <path id="Caminho_20" data-name="Caminho 20" d="M261.126,394.421c-.126-2.643-.126-5.287-.126-7.93s.126-5.287.252-7.93.252-5.287.5-7.93l.378-4.028c.126-1.259.252-2.643.5-3.9.126,1.385.126,2.643.126,4.028v4.028c0,2.643-.126,5.287-.252,7.93s-.252,5.287-.5,7.93C261.755,389.134,261.5,391.778,261.126,394.421Z" transform="translate(-261 -362.7)" fill="#92d5e4"/>
          </g>
          <g id="Grupo_25" data-name="Grupo 25" transform="translate(107.172 62.435)">
            <path id="Caminho_21" data-name="Caminho 21" d="M290.967,365.768a52.666,52.666,0,0,1-.252-8.937,67.39,67.39,0,0,1,.881-8.811,72.1,72.1,0,0,1,2.014-8.686c.5-1.385.881-2.769,1.385-4.28.5-1.385,1.133-2.769,1.762-4.154-.378,1.385-.755,2.9-1.133,4.28s-.755,2.9-1.133,4.28c-.629,2.9-1.259,5.79-1.762,8.686s-.881,5.79-1.133,8.686C291.345,359.978,291.093,362.873,290.967,365.768Z" transform="translate(-290.64 -330.9)" fill="#92d5e4"/>
          </g>
          <g id="Grupo_26" data-name="Grupo 26" transform="translate(142.1 41.917)">
            <path id="Caminho_22" data-name="Caminho 22" d="M318.4,341.286a51.47,51.47,0,0,1,1.636-13.846,46.049,46.049,0,0,1,5.287-12.84c-1.511,4.406-2.9,8.686-4.028,13.217A116.157,116.157,0,0,0,318.4,341.286Z" transform="translate(-318.387 -314.6)" fill="#92d5e4"/>
          </g>
          <g id="Grupo_27" data-name="Grupo 27" transform="translate(175.199 26.56)">
            <path id="Caminho_23" data-name="Caminho 23" d="M344.83,317.883a19.961,19.961,0,0,1,.755-8.182,20.216,20.216,0,0,1,3.776-7.3c-.881,2.643-1.888,5.035-2.643,7.679C345.963,312.6,345.46,315.24,344.83,317.883Z" transform="translate(-344.682 -302.4)" fill="#92d5e4"/>
          </g>
          <g id="Grupo_28" data-name="Grupo 28" transform="translate(175.599 42.421)">
            <path id="Caminho_24" data-name="Caminho 24" d="M345,315.252a50.052,50.052,0,0,1,8.686-.126,48.292,48.292,0,0,1,8.56,1.133,50.052,50.052,0,0,1-8.686.126A63.658,63.658,0,0,1,345,315.252Z" transform="translate(-345 -315)" fill="#92d5e4"/>
          </g>
          <g id="Grupo_29" data-name="Grupo 29" transform="translate(142.493 64.701)">
            <path id="Caminho_25" data-name="Caminho 25" d="M318.7,337.357a64.689,64.689,0,0,0,9.818.881,85.5,85.5,0,0,0,9.818-.5,61.239,61.239,0,0,0,9.567-1.888l2.392-.629,2.392-.755,2.266-.881a16.825,16.825,0,0,1,2.266-.881c-.755.378-1.385.881-2.14,1.259l-2.266,1.133-2.266,1.007-2.392.881a43.093,43.093,0,0,1-9.693,2.14,43.8,43.8,0,0,1-9.944.126A50.18,50.18,0,0,1,318.7,337.357Z" transform="translate(-318.7 -332.7)" fill="#92d5e4"/>
          </g>
          <g id="Grupo_30" data-name="Grupo 30" transform="translate(108.506 97.933)">
            <path id="Caminho_26" data-name="Caminho 26" d="M291.7,359.1a93.408,93.408,0,0,0,39.525,3.021l3.273-.5,3.273-.629,3.273-.755c1.133-.252,2.14-.629,3.273-.881-1.007.378-2.14.755-3.147,1.133l-3.147,1.007-3.273.881-3.273.755a68.777,68.777,0,0,1-13.469,1.259,80.013,80.013,0,0,1-13.469-1.259A101.8,101.8,0,0,1,291.7,359.1Z" transform="translate(-291.7 -359.1)" fill="#92d5e4"/>
          </g>
          <g id="Grupo_31" data-name="Grupo 31" transform="translate(70.491 133.304)">
            <path id="Caminho_27" data-name="Caminho 27" d="M261.5,388.081a19.822,19.822,0,0,0,5.79,2.014,24.448,24.448,0,0,0,3.021.252c1.007,0,2.014.126,3.021.126,4.028.126,8.182.126,12.21-.126s8.182-.629,12.21-1.133c2.014-.252,4.028-.5,6.042-.881,2.014-.252,4.028-.755,6.042-1.133-1.888.629-3.9,1.259-5.916,1.762s-4.028.881-6.042,1.259a100.7,100.7,0,0,1-12.21,1.385,80.423,80.423,0,0,1-12.336-.252c-1.007-.126-2.014-.126-3.021-.252a25.19,25.19,0,0,1-3.021-.5A20.161,20.161,0,0,1,261.5,388.081Z" transform="translate(-261.5 -387.2)" fill="#92d5e4"/>
          </g>
          <g id="Grupo_32" data-name="Grupo 32" transform="translate(43.176 163.011)">
            <path id="Caminho_28" data-name="Caminho 28" d="M239.8,412.436c3.273.252,6.546.5,9.693.629a82.648,82.648,0,0,0,9.693-.126c3.273-.126,6.42-.378,9.693-.755,1.636-.126,3.273-.378,4.783-.629l2.392-.378c.755-.126,1.636-.252,2.392-.378-1.511.5-3.147,1.007-4.657,1.385-1.636.378-3.147.755-4.783,1.007a86.869,86.869,0,0,1-9.818,1.133,63.977,63.977,0,0,1-9.818-.252C246.22,413.569,243.073,413.192,239.8,412.436Z" transform="translate(-239.8 -410.8)" fill="#92d5e4"/>
          </g>
        </g>
      </g>
      <g id="Grupo_35" data-name="Grupo 35" transform="translate(0 120.59)">
        <path id="Caminho_29" data-name="Caminho 29" d="M170.566,471.8c-9.441,1.007-19.007,2.014-28.448,2.9-6.168.629-12.714,1.259-18.252-1.385-5.664-2.643-9.693-9.567-6.923-15.105,3.4-6.8,14.35-7.3,16.993-14.476-7.049-6.8-17.875-7.553-27.693-7.3s-20.266.755-28.7-4.28-12.336-18.5-4.657-24.672c3.147-2.518,7.175-3.147,10.825-4.909,3.525-1.762,6.8-5.539,5.539-9.315-.881-2.518-3.273-3.9-5.664-5.035-9.693-4.658-20.392-6.923-30.462-10.7s-20.14-9.315-25.8-18.5-5.664-22.532,2.518-29.581c9.315-8.056,24.294-4.406,33.735,3.4s15.609,18.882,24.294,27.693c2.9,3.021,7.3,5.916,11.077,4.154,4.909-2.392,3.776-9.567,2.518-14.853s0-13.091,5.539-12.84a7.614,7.614,0,0,1,4.657,2.392c14.1,12.84,6.042,36.63,13.091,54.253,1.511,3.9,5.035,8.056,9.189,7.049,8.182-1.888,3.525-18.126,11.581-20.392,3.525-1.007,7.049,2.014,8.686,5.161,5.79,11.2-1.888,24.8-.378,37.386,2.014,16.616,18.756,26.812,33.735,34.113" transform="translate(-23.341 -324.899)" fill="#92d5e4"/>
      </g>
      <g id="Grupo_44" data-name="Grupo 44" transform="translate(257.083 20.007)">
        <g id="Grupo_37" data-name="Grupo 37" transform="translate(0 21.373)">
          <g id="Grupo_36" data-name="Grupo 36">
            <path id="Caminho_30" data-name="Caminho 30" d="M228.74,410.92c2.643-11.2,5.287-22.406,8.811-33.357a139.559,139.559,0,0,1,13.595-31.092,94.86,94.86,0,0,1,10.07-13.595,125.075,125.075,0,0,1,13.343-12.462c4.658-3.9,9.315-7.679,13.846-11.581a128.023,128.023,0,0,0,12.336-12.462,125.482,125.482,0,0,0,18.63-29.707,36.238,36.238,0,0,0,1.636-3.9c.252-.755-.881-1.133-1.259-.378A122.9,122.9,0,0,1,302,292.847a127.836,127.836,0,0,1-11.958,12.84c-4.406,4.028-9.189,7.93-13.847,11.707A177.651,177.651,0,0,0,262.6,329.6a97.339,97.339,0,0,0-10.574,13.217c-6.168,9.315-10.574,19.637-14.224,30.211a344.511,344.511,0,0,0-9.189,33.358c-.378,1.385-.629,2.769-1.007,4.028-.252,1.007,1.007,1.385,1.133.5Z" transform="translate(-227.574 -261.973)" fill="#92d5e4"/>
          </g>
        </g>
        <g id="Grupo_38" data-name="Grupo 38" transform="translate(84.371)">
          <path id="Caminho_31" data-name="Caminho 31" d="M295.1,282.135c1.007-12.336,2.769-26.057,11.581-34.113,1.762-1.511,3.776-2.9,6.042-3.021a5.036,5.036,0,0,1,5.161,3.525,8.513,8.513,0,0,1-.5,4.657c-3.776,12.21-13.595,20.9-22.784,28.826" transform="translate(-294.6 -244.994)" fill="#92d5e4"/>
        </g>
        <g id="Grupo_39" data-name="Grupo 39" transform="translate(72.539 44.151)">
          <path id="Caminho_32" data-name="Caminho 32" d="M286.836,287.787a41.925,41.925,0,0,1,17.5-7.3c3.273-.629,6.923-.755,9.693,1.133,2.769,1.762,4.406,6.168,2.643,9.315-1.762,3.021-5.413,3.525-8.686,3.525a82.258,82.258,0,0,1-22.784-3.147" transform="translate(-285.2 -280.069)" fill="#92d5e4"/>
        </g>
        <g id="Grupo_40" data-name="Grupo 40" transform="translate(55.618 26.217)">
          <path id="Caminho_33" data-name="Caminho 33" d="M277.979,305.32c5.161-10.448,6.42-17.5,5.539-28.952-.252-3.147-.881-6.42-2.9-8.686s-5.79-2.643-7.679-.126c-1.259,1.762-1.259,4.154-1.133,6.294a312.486,312.486,0,0,0,4.28,34.365" transform="translate(-271.758 -265.821)" fill="#92d5e4"/>
        </g>
        <g id="Grupo_41" data-name="Grupo 41" transform="translate(44.468 75.161)">
          <path id="Caminho_34" data-name="Caminho 34" d="M262.9,310.364a29.907,29.907,0,0,1,28.2-3.65c2.392,1.007,4.783,2.392,6.042,4.909,1.259,2.392.755,6.042-1.511,7.553-1.511,1.007-3.273.755-5.035.5a95.824,95.824,0,0,1-27.441-8.811" transform="translate(-262.9 -304.704)" fill="#92d5e4"/>
        </g>
        <g id="Grupo_42" data-name="Grupo 42" transform="translate(32.584 49.72)">
          <path id="Caminho_35" data-name="Caminho 35" d="M258.923,320.629a60.637,60.637,0,0,0,2.266-33.106,4.032,4.032,0,0,0-1.511-2.769c-1.888-1.133-3.9,1.636-4.532,4.028-3.147,10.574-1.511,25.175,1.762,35.5" transform="translate(-253.459 -284.492)" fill="#92d5e4"/>
        </g>
        <g id="Grupo_43" data-name="Grupo 43" transform="translate(25.083 98.026)">
          <path id="Caminho_36" data-name="Caminho 36" d="M250.269,324.8a17.032,17.032,0,0,1,18.63,1.888c1.636,1.385,3.273,3.9,2.14,5.916-.881,1.511-2.643,2.014-4.28,2.14-6.168.5-13.972-3.65-19.259-6.923" transform="translate(-247.5 -322.868)" fill="#92d5e4"/>
        </g>
      </g>
    </g>
    <g id="Grupo_87" data-name="Grupo 87" transform="translate(29.709 28.4)">
      <g id="Grupo_50" data-name="Grupo 50" transform="translate(336.094 70.869)">
        <g id="Grupo_47" data-name="Grupo 47" transform="translate(8.18)">
          <g id="Grupo_46" data-name="Grupo 46">
            <path id="Caminho_37" data-name="Caminho 37" d="M301.9,115.873l1.636-3.273.5.378Z" transform="translate(-301.9 -77.48)" fill="#2ea8bc"/>
            <path id="Caminho_38" data-name="Caminho 38" d="M306.3,108.816a68.605,68.605,0,0,1,4.658-5.916l1.636,1.636a67.165,67.165,0,0,0-5.035,5.287Z" transform="translate(-300.761 -79.99)" fill="#2ea8bc"/>
            <path id="Caminho_39" data-name="Caminho 39" d="M314.2,99.657A68.6,68.6,0,0,1,320.116,95L322,97.769a62.625,62.625,0,0,0-5.916,4.154Z" transform="translate(-298.717 -82.035)" fill="#2ea8bc"/>
            <path id="Caminho_40" data-name="Caminho 40" d="M324.1,92.473l6.923-3.273,1.385,3.525-6.672,2.9Z" transform="translate(-296.155 -83.536)" fill="#2ea8bc"/>
            <path id="Caminho_41" data-name="Caminho 41" d="M335.2,87.662l7.427-1.762.755,3.525-7.049,1.762Z" transform="translate(-293.283 -84.389)" fill="#2ea8bc"/>
            <path id="Caminho_42" data-name="Caminho 42" d="M347,85.078l3.776-.252c1.259-.126,2.518-.126,3.776-.126l.126,2.9a35.876,35.876,0,0,0-3.65.378l-3.65.378Z" transform="translate(-290.229 -84.7)" fill="#2ea8bc"/>
            <path id="Caminho_43" data-name="Caminho 43" d="M359,85c2.518.252,4.909.629,7.427.881l-.126,1.636c-2.518,0-4.909-.126-7.3-.126Z" transform="translate(-287.124 -84.622)" fill="#2ea8bc"/>
            <path id="Caminho_44" data-name="Caminho 44" d="M370.726,87l3.4.881-3.525-.252Z" transform="translate(-284.122 -84.105)" fill="#2ea8bc"/>
          </g>
        </g>
        <g id="Grupo_49" data-name="Grupo 49" transform="translate(0 17.461)">
          <path id="Caminho_45" data-name="Caminho 45" d="M402.773,103.642c-37.008-14.6-79.051,3.4-93.653,40.281a71.709,71.709,0,0,0,7.679,67.219,2.273,2.273,0,0,0,1.259,1.762v.126l-22.28,32.35c-1.259,1.762.881,4.028,2.9,3.147l38.9-17.371a66.567,66.567,0,0,0,11.958,6.042c37.008,14.6,79.051-3.4,93.653-40.281C457.907,160.161,439.781,118.37,402.773,103.642Z" transform="translate(-295.401 -98.572)" fill="#fff" stroke="#2ea8bc" stroke-miterlimit="10" stroke-width="1"/>
          <path id="Caminho_46" data-name="Caminho 46" d="M342.695,131.2a6.8,6.8,0,1,1-6.8-6.8A6.691,6.691,0,0,1,342.695,131.2Z" transform="translate(-286.681 -91.889)" fill="#868686" fill-rule="evenodd"/>
          <path id="Caminho_47" data-name="Caminho 47" d="M394.195,181.6a6.8,6.8,0,1,1-6.8-6.8A6.691,6.691,0,0,1,394.195,181.6Z" transform="translate(-273.354 -78.846)" fill="#868686" fill-rule="evenodd"/>
          <path id="Caminho_48" data-name="Caminho 48" d="M391,190.39c-8.937.126-22.154-6.294-34.49-17.245-13.091-11.832-21.022-25.427-20.9-34.365a10.076,10.076,0,0,1-7.8-4.28c-.755,11.455,8.56,28.574,24.672,43.05,13.721,12.462,28.952,19.763,40.155,20.266a10.255,10.255,0,0,1-1.888-5.79A8.665,8.665,0,0,0,391,190.39Z" transform="translate(-287.026 -89.274)" fill="#868686" fill-rule="evenodd"/>
          <path id="Caminho_49" data-name="Caminho 49" d="M405.527,187.89c.755-11.455-8.56-28.574-24.672-42.924C367.134,132.63,351.9,125.329,340.7,124.7a10.478,10.478,0,0,1,2.266,6.42v1.007c8.937.126,21.9,6.546,33.861,17.245,13.469,12.084,21.4,26.057,20.77,34.994h0A9.646,9.646,0,0,1,405.527,187.89Z" transform="translate(-283.679 -91.81)" fill="#868686" fill-rule="evenodd"/>
          <g id="Grupo_48" data-name="Grupo 48" transform="translate(41.102 32.363)">
            <path id="Caminho_50" data-name="Caminho 50" d="M395.095,131.5a6.8,6.8,0,1,1-6.8-6.8A6.85,6.85,0,0,1,395.095,131.5Z" transform="translate(-314.223 -124.173)" fill="#006186" fill-rule="evenodd" opacity="0.8"/>
            <path id="Caminho_51" data-name="Caminho 51" d="M342.695,181.9a6.8,6.8,0,1,1-6.8-6.8A6.769,6.769,0,0,1,342.695,181.9Z" transform="translate(-327.782 -111.131)" fill="#006186" fill-rule="evenodd" opacity="0.8"/>
            <path id="Caminho_52" data-name="Caminho 52" d="M398.726,138.666h-.5a1.6,1.6,0,0,1-.755-.126c-.126,8.937-7.8,22.154-20.392,33.861-12.336,11.455-25.931,18-34.742,17.749a13.869,13.869,0,0,1,.252,2.266v1.007a10.1,10.1,0,0,1-1.385,4.28c11.2-.629,26.308-8.182,40.029-20.9,14.476-13.469,23.413-29.078,24.043-40.407A11.132,11.132,0,0,1,398.726,138.666Z" transform="translate(-324.651 -121.146)" fill="#006186" fill-rule="evenodd" opacity="0.8"/>
            <path id="Caminho_53" data-name="Caminho 53" d="M335.665,185.355h.378c-1.133-8.811,6.8-23.287,20.266-35.749,12.714-11.707,26.686-18.378,35.5-17.749v-.252a10.167,10.167,0,0,1,3.021-7.3c-11.329-.5-27.819,7.175-42.672,20.9-15.861,14.728-24.924,31.847-24.043,43.3A11.109,11.109,0,0,1,335.665,185.355Z" transform="translate(-328.053 -124.282)" fill="#006186" fill-rule="evenodd" opacity="0.8"/>
          </g>
        </g>
      </g>
      <g id="Grupo_86" data-name="Grupo 86">
        <g id="Grupo_85" data-name="Grupo 85" clip-path="url(#clip-path)">
          <g id="Grupo_51" data-name="Grupo 51" transform="translate(78.244 107.347)">
            <path id="Caminho_54" data-name="Caminho 54" d="M265.832,139.762c-9.063-19.763-35.372-29.833-56.645-24.8-21.147,5.035-37.763,22.91-45.568,43.3-6.8,17.623-7.8,36.756-13.343,54.757a115.136,115.136,0,0,1-23.161,41.665c-9.567,11.077-21.4,20.392-28.826,32.98a57.785,57.785,0,0,0,42.8,86.478c19.763,2.518,40.281-5.287,59.54-.252,9.818,2.518,18.756,8.308,28.826,9.567,17.371,2.266,34.365-10.07,41.54-26.057s6.294-34.49,1.888-51.484c-4.783-18.378-13.469-35.875-14.6-54.883-1.259-21.021,3.525-34.868,5.035-55.89C264.447,176.77,278.546,167.581,265.832,139.762Z" transform="translate(-90.559 -113.679)" fill="#38303b"/>
          </g>
          <g id="Grupo_61" data-name="Grupo 61" transform="translate(-15.206 393.491)">
            <g id="Grupo_54" data-name="Grupo 54" transform="translate(283.073 440.382)">
              <path id="Caminho_55" data-name="Caminho 55" d="M270.579,723.138c-.629-7.175-1.259-14.35-2.014-21.525-.252-2.769-.629-5.79-2.643-7.93-3.525-3.776-9.944-3.021-15.357-2.014-1.888.378-4.028.881-5.161,2.266-1.511,1.762-1.007,4.28-.378,6.42,2.643,9.567,5.287,19.259,7.93,28.826" transform="translate(-240.369 -690.849)" fill="#38303b"/>
              <g id="Grupo_53" data-name="Grupo 53" transform="translate(0 28.38)">
                <g id="Grupo_52" data-name="Grupo 52">
                  <path id="Caminho_56" data-name="Caminho 56" d="M324.531,743.36c-13.217.5-23.917.755-37.134,1.259-4.028.126-36-.378-40.532-.378-1.511,0-3.147,0-4.28-1.007-1.385-1.133-1.385-3.147-1.385-5.035a77.681,77.681,0,0,1,3.9-20.77c.5-1.51,1.259-3.273,2.769-3.65,1.385-.378,2.9.378,4.154,1.133,5.161,2.9,5.539,2.9,11.707,1.636,1.511-.378,7.427-2.266,8.811-2.769a8.582,8.582,0,0,1,5.035,0,169.885,169.885,0,0,1,42.043,13.846c3.021,1.511,6.168,3.147,7.93,6.042s1.636,7.175-1.133,9.063" transform="translate(-241.2 -713.396)" fill="#38303b"/>
                </g>
              </g>
            </g>
            <g id="Grupo_57" data-name="Grupo 57" transform="translate(0 410.589)">
              <path id="Caminho_57" data-name="Caminho 57" d="M35.3,683.065c5.79-4.28,11.581-8.434,17.5-12.714,2.266-1.636,4.783-3.4,7.8-3.147,5.287.378,9.567,6.42,12.588,11.581,1.133,1.888,2.266,3.9,2.014,5.916-.252,2.392-2.518,3.65-4.532,4.657-9.063,4.154-18.252,8.434-27.315,12.588" transform="translate(-11.409 -667.181)" fill="#38303b"/>
              <g id="Grupo_56" data-name="Grupo 56" transform="translate(0 9.546)">
                <g id="Grupo_55" data-name="Grupo 55">
                  <path id="Caminho_58" data-name="Caminho 58" d="M54.813,757.133c-6.546-11.455-11.958-20.77-18.5-32.1-2.014-3.525-16.49-31.973-18.756-36-.755-1.385-1.511-2.769-1.133-4.28.378-1.762,2.14-2.769,3.776-3.525a76.382,76.382,0,0,1,20.14-6.294c1.636-.252,3.4-.378,4.532.755,1.007,1.007,1.007,2.769,1.007,4.154-.126,5.916,0,6.294,4.154,11.077,1.007,1.133,5.413,5.539,6.671,6.546a9.435,9.435,0,0,1,2.392,4.406,165.568,165.568,0,0,1,7.553,43.679c.126,3.4.126,6.923-1.511,9.818s-5.539,4.783-8.56,3.147" transform="translate(-16.32 -674.765)" fill="#38303b"/>
                </g>
              </g>
            </g>
            <g id="Grupo_60" data-name="Grupo 60" transform="translate(41.878)">
              <g id="Grupo_58" data-name="Grupo 58" transform="translate(150.185)">
                <path id="Caminho_59" data-name="Caminho 59" d="M178.089,471.409c24.546,101.583,46.826,208.2,79.932,306.889,2.643,7.8,6.42,21.4,10.2,21.777,5.287.629,9.693-.126,14.728-1.007a8,8,0,0,0,6.42-8.686c-17.119-150.172-16.112-301.6-52.491-447.746-1.259-5.161-67.974,3.525-67.974,3.525" transform="translate(-168.9 -340.999)" fill="#38303b"/>
              </g>
              <g id="Grupo_59" data-name="Grupo 59" transform="translate(0 18.505)">
                <path id="Caminho_60" data-name="Caminho 60" d="M56.274,770.969a4.54,4.54,0,0,0,6.42,2.518c35.5-18.756,66.463-50.1,92.142-88.869,37.763-56.9,60.8-101.961,81.065-169.179,15.609-51.61,28.574-105.863,22.91-159.738a723.127,723.127,0,0,0-73.387,9.818c-4.909.881-6.168,1.259-9.567,5.287-3.4,3.776-5.035,13.343-5.916,18.5-9.315,58.155-10.2,114.8-21.525,172.452-13.846,69.862-44.938,143-97.177,186.8a4.549,4.549,0,0,0-1.385,5.035Z" transform="translate(-49.589 -355.7)" fill="#38303b"/>
              </g>
            </g>
          </g>
          <g id="Grupo_62" data-name="Grupo 62" transform="translate(134.437 469.9)">
            <path id="Caminho_61" data-name="Caminho 61" d="M135.2,406.483l2.769,9.567c1.133,4.657,6.42,11.2,12.336,11.2,36.253,0,72.505-.5,108.758-1.259,2.9-.126,6.042-.252,8.182-1.888,1.762-1.385,2.266-3.525,2.643-5.539,1.133-5.664,2.392-11.2,3.525-16.868" transform="translate(-135.2 -401.7)" fill="#2ea8bc"/>
          </g>
          <g id="Grupo_63" data-name="Grupo 63" transform="translate(338.736 426.598)">
            <path id="Caminho_62" data-name="Caminho 62" d="M297.5,377.5c5.287,5.539,25.553,29.707,28.952,36.5,3.65,7.3,6.294,15.357,11.832,21.4,1.133,1.133,3.65,0,3.776-1.636a26.269,26.269,0,0,0-.378-8.937c-.378-1.636,2.14-3.147,3.65-2.266a11.569,11.569,0,0,1,2.769,2.769c4.532,6.168,8.937,10.448,13.469,16.616,1.888,2.643,4.783,6.546,7.3,8.686,1.259,1.007,2.014-.378,1.636-1.888-.252-1.259-2.392-5.916-2.014-5.413,1.007,1.133,3.4.126,2.9-2.14C369,431.5,362.7,419.665,358.3,414c-11.077-14.476-35.623-31.218-46.575-46.7" transform="translate(-297.5 -367.3)" fill="#f7b094"/>
          </g>
          <g id="Grupo_64" data-name="Grupo 64" transform="translate(229.726 251.125)">
            <path id="Caminho_63" data-name="Caminho 63" d="M210.9,295.622c26.183,44.309,63.065,86.6,107,122.353,4.783,3.9,8.308,7.049,12.965,5.664,6.671-2.014,17.119-8.182,12.336-14.728-22.658-30.588-52.491-65.2-64.449-97.555-5.413-14.6-9.693-29.329-16.868-43.805S244.006,236.837,228.9,227.9" transform="translate(-210.9 -227.9)" fill="#2ea8bc"/>
          </g>
          <g id="Grupo_65" data-name="Grupo 65" transform="translate(132.044 240.111)">
            <path id="Caminho_64" data-name="Caminho 64" d="M148.783,466.184c-7.8.252-13.972-7.427-15.357-15.105-1.259-7.679,7.3-24.546,5.916-32.728-1.888-11.455-14.476-113.038,7.427-168.8,5.035-12.714,13.469-25.553,26.56-29.2,6.923-1.888,14.35-1.007,21.525-.881,14.979.378,30.966-2.14,44.435,4.28,23.161,11.077,27.693,41.414,29.2,66.967,1.259,21.4,2.518,42.672,3.776,64.072,1.636,26.56,11.077,50.854,3.4,72.379-2.266,6.294,6.546,24.294,2.266,29.455-4.783,5.79-17.749,3.9-25.175,4.28-30.966,1.385-61.806,2.9-92.772,4.28" transform="translate(-133.299 -219.15)" fill="#92d5e4"/>
          </g>
          <path id="Caminho_65" data-name="Caminho 65" d="M250.47,277.078l-4.532-4.28a.608.608,0,0,1,0-.881l45.316-47.078a.608.608,0,0,1,.881,0l4.532,4.28a.608.608,0,0,1,0,.881l-45.316,47.078A.608.608,0,0,1,250.47,277.078Z" transform="translate(27.844 22.384)" fill="#38303b"/>
          <g id="Grupo_66" data-name="Grupo 66" transform="translate(129.551 241.362)">
            <path id="Caminho_66" data-name="Caminho 66" d="M205.563,394.177c-6.8,5.79-24.546,15.357-31.847,20.518-5.413,3.9-14.979.126-22.91-8.434-5.413-5.79-9.818-17.623-12.21-25.3-4.532-14.476-6.294-34.49-7.049-52.113-1.007-23.287,1.511-44.309,3.65-61.428,2.14-16.993,14.224-40.029,26.56-44.812,17.749-6.923,25.553.378,28.2,26.686,1.888,18.882-2.266,34.868-5.035,66.715-1.259,14.476-2.643,40.281-2.643,40.281Z" transform="translate(-131.318 -220.144)" fill="#2ea8bc"/>
          </g>
          <g id="Grupo_67" data-name="Grupo 67" transform="translate(234.006 271.302)">
            <path id="Caminho_67" data-name="Caminho 67" d="M214.3,308.719c5.413-5.413,26.057-29.2,29.581-35.875,3.9-7.175,6.8-15.105,12.462-21.021,1.133-1.133,3.525,0,3.65,1.636a26.635,26.635,0,0,1-.755,8.937c-.378,1.636,5.539,3.273,7.049,2.392,1.133-.629,19.511-20.014,19.889-20.392,1.007-1.133,3.4-.126,2.643,2.14-2.769,9.693-9.315,21.147-13.846,26.812-11.329,14.224-35.875,30.588-47.2,45.819" transform="translate(-214.3 -243.928)" fill="#f7b094"/>
          </g>
          <g id="Grupo_68" data-name="Grupo 68" transform="translate(171.193 321.676)">
            <path id="Caminho_68" data-name="Caminho 68" d="M164.4,397.807c8.686-1.636,27.441-13.846,35.372-23.413,12.588-15.105,52.743-64.323,53.75-72.505.378-3.4-10.825-13.343-15.357-17.749-2.643-2.643-24.043,22.658-35.372,32.6-3.525,3.147-24.168,19.385-33.987,26.308" transform="translate(-164.4 -283.947)" fill="#2ea8bc"/>
          </g>
          <g id="Grupo_71" data-name="Grupo 71" transform="translate(162.634 321.491)">
            <g id="Grupo_69" data-name="Grupo 69" transform="translate(2.266)">
              <path id="Caminho_69" data-name="Caminho 69" d="M159.4,344.1c10.2-2.14,19.259-7.427,27.441-13.469a237.857,237.857,0,0,0,23.413-20.14c7.427-7.049,14.6-14.476,21.777-21.9l2.643-2.769.629-.755a3.337,3.337,0,0,1,.755-.629,4.179,4.179,0,0,1,2.014-.629,3.694,3.694,0,0,1,2.014.5,7.9,7.9,0,0,1,1.511,1.385l2.769,2.769,10.825,11.077-11.2-10.7-2.769-2.643c-.5-.378-.881-1.007-1.385-1.259a3.484,3.484,0,0,0-1.636-.378,3.57,3.57,0,0,0-1.636.5,4,4,0,0,0-1.259,1.259l-2.643,2.9c-7.049,7.553-14.224,14.979-21.651,22.154a239.583,239.583,0,0,1-23.665,20.015A109.554,109.554,0,0,1,174,339.312,52.335,52.335,0,0,1,159.4,344.1Z" transform="translate(-159.4 -283.8)" fill="#fff"/>
            </g>
            <g id="Grupo_70" data-name="Grupo 70" transform="translate(0 49.924)">
              <path id="Caminho_70" data-name="Caminho 70" d="M173.461,329.049c-2.643-1.133-5.161-2.14-7.8-3.021a59.742,59.742,0,0,0-8.056-2.518,16.32,16.32,0,0,1,4.28.252,25.482,25.482,0,0,1,4.154,1.133,36.727,36.727,0,0,1,3.9,1.762A9.737,9.737,0,0,1,173.461,329.049Z" transform="translate(-157.6 -323.461)" fill="#fff"/>
            </g>
          </g>
          <g id="Grupo_82" data-name="Grupo 82" transform="translate(171.823 127.396)">
            <g id="Grupo_77" data-name="Grupo 77" transform="translate(4.743 5.005)">
              <g id="Grupo_73" data-name="Grupo 73" transform="translate(12.636 61.951)">
                <path id="Caminho_71" data-name="Caminho 71" d="M178.95,226.832c2.518-10.448,6.168-25.931,7.93-33.106.755-2.9,1.385-5.79,2.266-8.686a2.956,2.956,0,0,1,.881-1.762,1.654,1.654,0,0,1,1.259-.378c4.28-.126,7.679,3.4,11.329,5.413,4.657,2.392,10.07,2.518,14.728,4.657a2.483,2.483,0,0,1,1.385,1.385,2.721,2.721,0,0,1-.126,1.385c-1.385,8.56-2.769,31.847-3.65,42.8-.5,6.042-11.329,9.567-22.154,6.546C179.58,241.308,177.943,230.986,178.95,226.832Z" transform="translate(-178.706 -182.772)" fill="#f7b094"/>
                <g id="Grupo_72" data-name="Grupo 72" transform="translate(7.168)">
                  <path id="Caminho_72" data-name="Caminho 72" d="M188.554,183.178a1.654,1.654,0,0,1,1.259-.378c4.28-.126,7.679,3.4,11.329,5.413,4.657,2.392,10.07,2.518,14.728,4.657a2.483,2.483,0,0,1,1.385,1.385,2.72,2.72,0,0,1-.126,1.385c-.755,4.783-1.636,9.567-2.392,14.35a25.7,25.7,0,0,1-15.105,2.266c-6.8-1.259-12.714-6.546-15.231-14.35.378-1.385.629-2.769,1.007-4.154.755-2.9,1.385-5.79,2.266-8.686A3.308,3.308,0,0,1,188.554,183.178Z" transform="translate(-184.4 -182.797)" fill="#e89c82"/>
                </g>
              </g>
              <g id="Grupo_74" data-name="Grupo 74" transform="translate(0 35.771)">
                <path id="Caminho_73" data-name="Caminho 73" d="M181.926,181.385c-6.294-.755-11.958-4.28-13.091-8.937s3.65-10.07,10.07-10.448" transform="translate(-168.668 -162)" fill="#f7b094"/>
              </g>
              <g id="Grupo_75" data-name="Grupo 75" transform="translate(9.702)">
                <path id="Caminho_74" data-name="Caminho 74" d="M179.3,189.116c7.049,23.287,23.665,26.057,41.036,31.218a35.025,35.025,0,0,0,11.455.881c7.93-1.007,11.455-8.686,12.839-15.231a143.071,143.071,0,0,0,3.4-34.239c-.126-7.93-1.133-15.986-5.161-23.161A29.649,29.649,0,0,0,221.6,133.856c-11.832-1.636-23.539,4.28-31.343,11.832-11.455,11.077-17.119,26.686-11.958,40.658" transform="translate(-176.375 -133.582)" fill="#f7b094"/>
              </g>
              <g id="Grupo_76" data-name="Grupo 76" transform="translate(79.218 37.66)">
                <path id="Caminho_75" data-name="Caminho 75" d="M233.866,163.5c.126,7.3.378,6.042,1.259,10.2.126.5,1.007,4.028,3.525,5.664a3.939,3.939,0,0,1,.881,5.916,5.861,5.861,0,0,1-3.147,1.636,4.5,4.5,0,0,1-4.783-1.636" transform="translate(-231.6 -163.5)" fill="#f7b094"/>
              </g>
            </g>
            <g id="Grupo_78" data-name="Grupo 78">
              <path id="Caminho_76" data-name="Caminho 76" d="M164.9,172.648c17.5-2.014,33.609-8.56,48.211-16.364,6.8-3.65,13.469-7.679,18.126-13.091,2.518-2.9,4.28-6.923,2.014-10.07-2.643-3.4-8.56-3.776-13.469-3.4-3.525.252-7.049.755-10.574,1.259a56.8,56.8,0,0,0-16.616,5.161c-5.664,3.021-10.07,7.3-14.35,11.581-4.406,4.406-8.811,9.189-9.315,14.728" transform="translate(-164.9 -129.606)" fill="#38303b"/>
            </g>
            <g id="Grupo_81" data-name="Grupo 81" transform="translate(42.167 26.713)">
              <g id="Grupo_79" data-name="Grupo 79" transform="translate(18.129)">
                <path id="Caminho_77" data-name="Caminho 77" d="M213.178,154.569c-.252.252.126.5.378.5a2.371,2.371,0,0,0,1.007-.252,21.73,21.73,0,0,1,12.965-1.007,5.217,5.217,0,0,0,2.014.252c.629,0,1.385-.378,1.385-.881,0-.252-.126-.378-.378-.5a7.435,7.435,0,0,0-3.021-1.385,19.59,19.59,0,0,0-11.707,1.007,6.584,6.584,0,0,0-3.021,2.392" transform="translate(-212.8 -150.828)" fill="#38303b"/>
              </g>
              <g id="Grupo_80" data-name="Grupo 80" transform="translate(0 22.998)" opacity="0.54">
                <path id="Caminho_78" data-name="Caminho 78" d="M198.4,179.422c-.126,5.79,4.783,10.448,10.951,10.448s11.2-4.532,11.329-10.322S215.9,169.1,209.729,169.1A10.853,10.853,0,0,0,198.4,179.422Z" transform="translate(-198.398 -169.098)" fill="#ed825d"/>
              </g>
              <path id="Caminho_79" data-name="Caminho 79" d="M219.7,164.088c.252,2.769,1.762,5.035,3.4,4.909s2.9-2.392,2.643-5.287c-.252-2.769-1.762-5.035-3.4-4.909S219.576,161.319,219.7,164.088Z" transform="translate(-192.888 -148.766)" fill="#38303b"/>
            </g>
          </g>
          <g id="Grupo_84" data-name="Grupo 84" transform="translate(184.883 237.032)">
            <g id="Grupo_83" data-name="Grupo 83">
              <path id="Caminho_80" data-name="Caminho 80" d="M175.432,220.6a28.261,28.261,0,0,0,22.91,17.623c10.951,1.259,21.651-5.413,23.036-16.742.252-1.636-1.636-3.147-3.147-3.147-1.888,0-2.9,1.511-3.147,3.147-.881,7.93-9.944,11.581-16.993,10.448a21.978,21.978,0,0,1-16.616-12.965,3.29,3.29,0,0,0-3.9-2.14c-1.385.378-2.769,2.266-2.14,3.776Z" transform="translate(-175.276 -216.704)" fill="#f4f6f9"/>
            </g>
          </g>
        </g>
      </g>
    </g>
  </g>
</svg>
